<?xml version="1.0" standalone="no"?>
<!DOCTYPE svg PUBLIC "-//W3C//DTD SVG 20010904//EN"
 "http://www.w3.org/TR/2001/REC-SVG-20010904/DTD/svg10.dtd">
<svg version="1.0" xmlns="http://www.w3.org/2000/svg"
 width="512.000000pt" height="512.000000pt" viewBox="0 0 512.000000 512.000000"
 preserveAspectRatio="xMidYMid meet">

<g transform="translate(0.000000,512.000000) scale(0.100000,-0.100000)"
fill="#000000" stroke="none">
<path d="M2216 4980 c-16 -77 -34 -146 -40 -154 -6 -7 -36 -21 -66 -30 -30
-10 -96 -37 -147 -61 l-92 -43 -128 84 -128 83 -219 -218 -219 -219 41 -97
c23 -53 42 -100 42 -104 0 -5 -33 -11 -73 -14 -161 -14 -306 -93 -404 -222
-101 -132 -127 -235 -120 -470 3 -104 10 -176 20 -206 32 -97 80 -174 153
-248 41 -40 74 -81 74 -90 0 -13 -25 -23 -114 -45 l-115 -28 -207 121 -206
121 -134 0 -134 0 2 -857 3 -856 400 -134 400 -133 85 2 c81 3 84 4 90 28 3
14 10 25 16 25 5 0 61 -31 125 -68 114 -69 115 -69 126 -118 24 -99 111 -184
202 -196 36 -5 39 -8 44 -45 12 -90 97 -177 195 -200 46 -11 52 -16 52 -38 0
-15 12 -50 27 -79 31 -62 89 -108 165 -131 49 -15 51 -17 63 -63 17 -69 61
-125 124 -161 69 -38 162 -42 226 -9 l40 21 45 -40 c62 -55 113 -79 180 -85
130 -12 243 69 273 197 11 47 13 49 53 55 90 13 175 100 196 201 8 39 13 44
36 44 92 1 211 120 212 212 0 22 6 29 28 34 62 13 112 37 146 70 48 46 67 85
73 151 l6 54 743 372 744 372 0 602 0 603 -96 0 -96 0 -134 -71 -135 -71 -47
20 c-26 11 -127 39 -224 63 -142 35 -178 47 -178 60 0 9 33 50 74 90 74 74
121 152 153 248 9 29 17 102 20 196 6 183 -8 263 -68 384 -93 189 -297 321
-495 321 l-43 0 46 106 46 106 -219 218 -219 219 -128 -83 -128 -84 -92 43
c-51 24 -117 51 -147 61 -30 9 -60 23 -66 30 -6 8 -24 77 -40 154 l-28 140
-316 0 -316 0 -28 -140z m529 -52 c3 -13 16 -72 28 -133 l23 -109 100 -28 c57
-16 154 -56 230 -94 l131 -66 107 71 c60 39 111 71 115 71 3 0 64 -58 135
-129 l129 -130 -44 -105 -44 -106 -65 -39 c-36 -21 -74 -48 -84 -60 -11 -12
-25 -21 -32 -21 -6 0 -35 31 -64 70 -191 257 -520 420 -850 420 -329 0 -635
-150 -843 -412 l-69 -87 -51 40 c-28 22 -68 49 -90 60 -40 21 -46 31 -107 182
l-24 58 129 129 c72 72 132 130 135 130 4 0 55 -32 115 -71 l108 -70 131 65
c76 38 173 78 230 94 l100 28 23 109 c12 61 25 120 28 133 5 22 7 22 185 22
178 0 180 0 185 -22z m-15 -570 c244 -46 461 -196 604 -417 l28 -43 -29 -87
c-26 -81 -28 -96 -28 -256 1 -195 13 -258 72 -365 20 -36 67 -95 105 -133 37
-37 68 -75 68 -85 0 -14 -29 -25 -165 -58 l-165 -41 -165 41 c-137 34 -165 44
-165 59 0 10 28 44 63 76 73 69 129 158 160 256 19 61 22 92 22 240 0 136 -4
182 -18 230 -65 212 -231 373 -433 421 -90 21 -225 14 -311 -16 -169 -59 -308
-201 -364 -372 -22 -66 -24 -90 -24 -253 0 -158 3 -188 22 -250 31 -98 87
-187 161 -256 34 -32 62 -66 62 -76 0 -15 -28 -25 -165 -59 l-165 -41 -165 41
c-131 32 -165 44 -165 57 0 9 31 48 68 85 38 38 85 98 105 134 59 106 72 170
71 360 0 156 -2 170 -30 251 l-29 86 30 50 c195 322 574 491 945 421z m-1325
-352 c116 -57 201 -166 231 -295 23 -96 15 -316 -13 -388 -31 -79 -86 -146
-158 -194 l-65 -44 3 -130 2 -130 135 -34 c74 -19 137 -36 139 -38 3 -2 -5
-13 -15 -26 -58 -64 -94 -163 -94 -253 0 -58 -2 -64 -22 -69 -13 -3 -69 -16
-125 -29 l-103 -23 0 87 0 88 -211 123 c-134 77 -206 125 -197 129 7 4 46 15
86 25 l72 19 0 132 0 132 -49 32 c-68 43 -117 100 -155 179 -30 64 -31 70 -34
228 -4 184 7 241 62 327 83 130 194 187 356 183 82 -2 103 -6 155 -31z m1327
-4 c78 -38 159 -120 194 -197 37 -79 46 -146 42 -300 -3 -137 -4 -143 -37
-210 -38 -77 -103 -148 -169 -185 l-43 -24 3 -130 3 -131 257 -65 c295 -75
325 -90 371 -179 27 -54 27 -57 27 -243 l0 -188 -32 0 c-18 0 -152 34 -298 76
-146 41 -287 78 -315 81 -27 3 -140 34 -250 69 -110 35 -229 70 -265 79 -107
25 -261 29 -372 11 -54 -9 -100 -16 -103 -16 -16 0 -1 84 23 131 45 89 75 104
370 179 l257 65 3 131 3 130 -43 24 c-66 37 -131 108 -169 185 -33 68 -34 72
-38 219 -5 206 14 283 94 381 41 51 96 89 172 121 50 21 71 24 153 22 85 -3
103 -7 162 -36z m1311 6 c109 -51 204 -167 236 -289 9 -30 12 -99 9 -200 -3
-148 -4 -156 -34 -220 -38 -79 -87 -136 -155 -179 l-49 -32 0 -132 0 -131 195
-49 c107 -28 195 -52 195 -56 0 -4 -850 -456 -881 -468 -5 -2 -9 61 -9 141 0
177 -21 253 -94 334 -10 13 -18 24 -15 26 2 2 65 19 139 38 l135 34 3 130 3
131 -62 39 c-72 46 -139 130 -166 208 -15 43 -18 83 -18 222 0 153 3 176 23
227 43 108 122 185 239 234 50 21 71 24 153 22 78 -3 105 -8 153 -30z m-3521
-1209 c161 -94 294 -172 295 -173 3 -2 -294 -1187 -299 -1191 -2 -3 -82 21
-176 53 l-172 57 0 712 0 713 29 0 c20 0 124 -55 323 -171z m4428 -472 l0
-462 -692 -346 -693 -346 -355 319 c-195 176 -369 330 -386 343 -40 30 -142
65 -192 65 -74 0 -139 -27 -299 -123 -89 -54 -178 -104 -198 -112 -94 -40
-183 59 -141 159 14 34 31 44 291 173 l277 138 83 3 c79 4 97 0 367 -77 201
-57 299 -81 338 -81 53 0 83 15 820 404 421 222 768 405 773 405 4 1 7 -207 7
-462z m-3797 103 c6 -5 -296 -1094 -307 -1107 -5 -6 -166 52 -166 59 0 9 278
1124 285 1145 3 8 34 -5 92 -39 48 -28 92 -54 96 -58z m1082 -154 c160 -44
167 -30 -73 -150 -124 -62 -229 -122 -254 -144 -119 -108 -120 -318 0 -423 61
-54 113 -72 201 -68 l77 4 170 101 c93 56 183 109 201 118 45 22 102 20 151
-6 59 -33 727 -637 747 -675 14 -29 14 -36 1 -67 -16 -39 -42 -56 -83 -56 -40
1 -45 5 -287 205 -119 99 -221 180 -225 180 -16 0 -103 -114 -96 -125 4 -6
100 -89 213 -184 114 -95 214 -181 222 -190 20 -25 18 -81 -4 -105 -23 -25
-73 -36 -106 -23 -14 6 -125 94 -247 196 -123 102 -226 186 -230 185 -8 0
-103 -113 -103 -121 0 -3 101 -89 224 -191 123 -103 226 -194 230 -203 21 -56
-18 -116 -75 -116 -20 0 -49 7 -65 15 -45 24 -204 162 -229 199 -30 45 -95 89
-153 103 -42 11 -47 15 -54 49 -20 95 -84 165 -178 193 -30 9 -57 18 -58 19
-2 1 -8 21 -13 44 -20 91 -97 168 -188 190 -48 11 -48 12 -64 68 -31 111 -127
185 -242 186 -90 1 -150 -33 -264 -149 l-93 -95 -107 64 c-58 36 -114 71 -123
78 -16 12 -8 43 93 397 60 212 110 386 112 387 2 2 527 119 602 133 83 17 268
5 370 -23z m-536 -982 c25 -21 31 -33 31 -65 0 -36 -8 -48 -86 -129 -90 -94
-132 -118 -175 -101 -53 20 -77 79 -51 126 5 11 51 59 100 108 101 99 127 107
181 61z m252 -253 c20 -20 29 -39 29 -62 0 -27 -15 -47 -98 -132 -90 -90 -102
-99 -136 -99 -42 0 -81 29 -90 68 -10 40 20 87 110 173 73 71 88 81 120 81 26
0 43 -8 65 -29z m247 -243 c29 -33 36 -70 19 -104 -8 -16 -53 -66 -100 -111
-78 -76 -88 -83 -125 -83 -33 0 -45 6 -66 31 -47 56 -33 89 87 207 77 75 88
82 124 82 28 0 46 -7 61 -22z m251 -252 c16 -17 23 -35 23 -62 0 -35 -8 -46
-99 -136 -85 -83 -105 -98 -132 -98 -41 0 -91 47 -91 85 0 40 22 74 97 147
105 103 148 117 202 64z m229 -219 c34 -34 42 -50 42 -79 0 -79 -97 -105 -167
-46 -21 18 -40 33 -42 35 -2 1 19 28 48 58 28 31 51 61 51 66 0 21 28 6 68
-34z"/>
</g>
</svg>
